<svg width="1200" height="900" viewBox="0 0 1200 900" fill="none" xmlns="http://www.w3.org/2000/svg">
<rect width="1200" height="900" fill="#FBF7F1"/>
<ellipse cx="600" cy="666" rx="248" ry="42" fill="#A87439" fill-opacity="0.16"/>

<path d="M286 548C335 450 419 380 523 347C481 390 458 438 451 492C445 540 455 583 482 620C402 608 335 584 286 548Z" fill="#B97734"/>
<path d="M914 548C865 450 781 380 677 347C719 390 742 438 749 492C755 540 745 583 718 620C798 608 865 584 914 548Z" fill="#B97734"/>

<path d="M402 565C402 448 491 360 600 360C709 360 798 448 798 565C798 618 758 654 705 654H495C442 654 402 618 402 565Z" fill="#D99C56"/>
<path d="M443 556C443 468 510 402 600 402C690 402 757 468 757 556C757 594 728 620 690 620H510C472 620 443 594 443 556Z" fill="#F0C27A"/>

<path d="M348 551C393 522 429 474 452 408" stroke="#875220" stroke-width="28" stroke-linecap="round"/>
<path d="M852 551C807 522 771 474 748 408" stroke="#875220" stroke-width="28" stroke-linecap="round"/>

<path d="M503 453C528 428 560 416 600 416C640 416 672 428 697 453" stroke="#9D602A" stroke-width="22" stroke-linecap="round"/>
<path d="M471 520C505 487 548 471 600 471C652 471 695 487 729 520" stroke="#9D602A" stroke-width="22" stroke-linecap="round"/>
<path d="M499 587C528 561 562 548 600 548C638 548 672 561 701 587" stroke="#9D602A" stroke-width="22" stroke-linecap="round"/>

<path d="M531 409C507 438 494 475 492 521C490 556 498 586 516 611" stroke="#FAE8C6" stroke-width="15" stroke-linecap="round"/>
<path d="M600 397C583 428 575 465 575 508C575 548 583 583 600 612" stroke="#FAE8C6" stroke-width="15" stroke-linecap="round"/>
<path d="M669 409C693 438 706 475 708 521C710 556 702 586 684 611" stroke="#FAE8C6" stroke-width="15" stroke-linecap="round"/>

<path d="M430 607C480 633 537 646 600 646C663 646 720 633 770 607" stroke="#B9793E" stroke-width="10" stroke-linecap="round" stroke-opacity="0.4"/>
</svg>
